{"title":"Universal Squadrons (2011) DvdRip [Xvid] {1337x}-X","uid":6473614,"size":730591232,"categoryP":"video","categoryS":"movies","magnet":"?xt=urn:btih:d50282a9852b8cfd27491bf8327b58825c9dab0c&amp;dn=Universal+Squadrons+%282011%29+DvdRip+%5BXvid%5D+%7B1337x%7D-X&amp;tr=udp%3A%2F%2Ftracker.openbittorrent.com%3A80&amp;tr=udp%3A%2F%2Fopen.demonii.com%3A1337&amp;tr=udp%3A%2F%2Ftracker.coppersurfer.tk%3A6969&amp;tr=udp%3A%2F%2Fexodus.desync.com%3A6969","seeders":0,"leechers":1,"uploader":"hiest","files":-1,"time":1308232178,"description":" ##     ## ##     ##  ######  ########    ###    ##    ##  ######   ##     ## \n ###   ### ##     ## ##    ##    ##      ## ##   ###   ## ##    ##   ##   ##  \n #### #### ##     ## ##          ##     ##   ##  ####  ## ##          ## ##   \n ## ### ## ##     ##  ######     ##    ##     ## ## ## ## ##   ####    ###    \n ##     ## ##     ##       ##    ##    ######### ##  #### ##    ##    ## ##   \n ##     ## ##     ## ##    ##    ##    ##     ## ##   ### ##    ##   ##   ##  \n ##     ##  #######   ######     ##    ##     ## ##    ##  ######   ##     ##\n\n Video\n ID : 0\n Format : MPEG-4 Visual\n Format profile : Advanced Simple@L5\n Format settings, BVOP : Yes\n Format settings, QPel : No\n Format settings, GMC : No warppoints\n Format settings, Matrix : Default (H.263)\n Muxing mode : Packed bitstream\n Codec ID : XVID\n Codec ID/Hint : XviD\n Duration : 1h 22mn\n Bit rate : 1 062 Kbps\n Width : 624 pixels\n Height : 336 pixels\n Display aspect ratio : 1.857\n Frame rate : 29.970 fps\n Color space : YUV\n Chroma subsampling : 4:2:0\n Bit depth : 8 bits\n Scan type : Progressive\n Bits/(Pixel*Frame) : 0.169\n Stream size : 628 MiB (90%)\n Writing library : XviD 57\n\n Audio\n ID : 1\n Format : MPEG Audio\n Format version : Version 1\n Format profile : Layer 3\n Mode : Joint stereo\n Mode extension : MS Stereo\n Codec ID : 55\n Codec ID/Hint : MP3\n Duration : 1h 22mn\n Bit rate mode : Variable\n Bit rate : 102 Kbps\n Nominal bit rate : 112 Kbps\n Channel(s) : 2 channels\n Sampling rate : 48.0 KHz\n Stream size : 60.4 MiB (9%)\n Alignment : Aligned on interleaves\n Interleave, duration : 24 ms (0.72 video frame)\n Interleave, preload duration : 203 ms\n Writing library : LAME3.97 \n Encoding settings : -m j -V 4 -q 2 -lowpass 16 --abr 112\n\n\n IMDB\n &lt;a href=&quot; http://www.imdb.com/title/tt1535606&quot; rel=&quot;nofollow&quot; target=&quot;_NEW&quot;&gt; http://www.imdb.com/title/tt1535606&lt;/a&gt;\n\n\n After returning to civilian life as a Texas rancher, Captain Lance Deakin \n fends off attacks from former members of his unit as he struggles to uncover \n the truth of what he did as a soldier in Iraq. The military performed\n experiments on Lance and his men to turn them into super-soldiers and \n brainwashed them to remember their top secret missions as the hyper-violent\n content of a video game called MINUTEMAN. Lance must uncover the truth in time\n to save the woman he loves.\n\n\n Screens:\n \n &lt;a href=&quot; http://leetleech.org/images/82306612645956520120.jpg&quot; rel=&quot;nofollow&quot; target=&quot;_NEW&quot;&gt; http://leetleech.org/images/82306612645956520120.jpg&lt;/a&gt;\n\n Shout out to noir and all my friends @ 1337x,org and extratorrent\n\n\n ##     ## ##     ##  ######  ########    ###    ##    ##  ######   ##     ## \n ###   ### ##     ## ##    ##    ##      ## ##   ###   ## ##    ##   ##   ##  \n #### #### ##     ## ##          ##     ##   ##  ####  ## ##          ## ##   \n ## ### ## ##     ##  ######     ##    ##     ## ## ## ## ##   ####    ###    \n ##     ## ##     ##       ##    ##    ######### ##  #### ##    ##    ## ##   \n ##     ## ##     ## ##    ##    ##    ##     ## ##   ### ##    ##   ##   ##  \n ##     ##  #######   ######     ##    ##     ## ##    ##  ######   ##     ##\n","torrent":{"xt":"urn:btih:d50282a9852b8cfd27491bf8327b58825c9dab0c","amp;dn":"Universal+Squadrons+%282011%29+DvdRip+%5BXvid%5D+%7B1337x%7D-X","amp;tr":["udp%3A%2F%2Ftracker.openbittorrent.com%3A80","udp%3A%2F%2Fopen.demonii.com%3A1337","udp%3A%2F%2Ftracker.coppersurfer.tk%3A6969","udp%3A%2F%2Fexodus.desync.com%3A6969"],"infoHash":"d50282a9852b8cfd27491bf8327b58825c9dab0c","infoHashBuffer":{"type":"Buffer","data":[213,2,130,169,133,43,140,253,39,73,27,248,50,123,88,130,92,157,171,12]},"announce":[],"urlList":[]}}